<svg width="21" height="20" viewBox="0 0 21 20" fill="none" xmlns="http://www.w3.org/2000/svg">
<path d="M10.25 0L11.4999 7V10V13L10.25 20L9 13V10V7L10.25 0Z" fill="#131313"/>
<path d="M5.24996 1.33974L9.83246 6.77693L11.3325 9.37501L12.8325 11.9731L15.25 18.6602L10.6674 13.2231L9.16745 10.625L7.66745 8.0269L5.24996 1.33974Z" fill="#131313"/>
<path d="M1.58971 5.00001L8.27687 7.41751L10.8749 8.91751L13.473 10.4175L18.9102 15L12.2231 12.5825L9.62498 11.0825L7.0269 9.58252L1.58971 5.00001Z" fill="#131313"/>
<path d="M0.249969 10L7.24997 8.75006H10.25L13.25 8.75006L20.25 10L13.25 11.25H10.25L7.24997 11.25L0.249969 10Z" fill="#131313"/>
<path d="M1.58971 15L7.0269 10.4175L9.62498 8.91751L12.2231 7.41751L18.9102 5.00001L13.473 9.58252L10.8749 11.0825L8.27687 12.5825L1.58971 15Z" fill="#131313"/>
<path d="M5.24995 18.6603L7.66745 11.9731L9.16745 9.37505L10.6674 6.77698L15.25 1.33979L12.8325 8.02695L11.3325 10.625L9.83246 13.2231L5.24995 18.6603Z" fill="#131313"/>
</svg>
